<svg version="1.1" id="Layer_1" xmlns="http://www.w3.org/2000/svg" xmlns:xlink="http://www.w3.org/1999/xlink" x="0px" y="0px"
	 width="100%" viewBox="0 0 180 180" enable-background="new 0 0 180 180" xml:space="preserve">
<path fill="#FC1137" opacity="1.000000" stroke="none" 
	d="
M55.000000,1.000000 
	C96.949036,1.000000 138.898071,1.000000 180.923553,1.000000 
	C180.923553,60.876148 180.923553,120.752419 180.923553,181.000000 
	C162.980804,181.000000 144.959061,181.000000 126.506912,180.532700 
	C126.081444,143.576843 125.702087,107.081680 126.328156,70.603790 
	C126.513268,59.818474 116.290237,49.766392 103.995277,54.868706 
	C91.707558,59.968014 79.036263,64.144691 66.523834,68.700325 
	C58.190811,71.734276 54.438423,69.159599 54.425644,60.359184 
	C54.399033,42.031616 54.404530,23.703953 54.442989,5.376427 
	C54.446053,3.917235 54.805935,2.458791 55.000000,1.000000 
z"/>
<path fill="#FFFBFC" opacity="1.000000" stroke="none" 
	d="
M54.531342,1.000000 
	C54.805935,2.458791 54.446053,3.917235 54.442989,5.376427 
	C54.404530,23.703953 54.399033,42.031616 54.425644,60.359184 
	C54.438423,69.159599 58.190811,71.734276 66.523834,68.700325 
	C79.036263,64.144691 91.707558,59.968014 103.995277,54.868706 
	C116.290237,49.766392 126.513268,59.818474 126.328156,70.603790 
	C125.702087,107.081680 126.081444,143.576843 126.038254,180.532700 
	C117.312439,181.000000 108.624870,181.000000 99.478195,180.531433 
	C99.019073,166.307907 99.019073,152.552948 99.019073,138.099945 
	C96.615677,138.877411 94.911362,139.373703 93.245468,139.976257 
	C79.008186,145.125946 64.786209,150.318054 50.543087,155.451477 
	C36.623619,160.468246 27.439266,154.038940 27.436846,139.299805 
	C27.429600,95.176178 27.439821,51.052540 27.415789,6.928924 
	C27.414713,4.952541 27.144730,2.976305 27.000000,1.000000 
	C36.020897,1.000000 45.041790,1.000000 54.531342,1.000000 
M75.180435,90.713112 
	C69.548370,92.745628 63.957142,94.903519 58.266819,96.757195 
	C55.468102,97.668922 54.259079,99.087959 54.338081,102.135086 
	C54.523579,109.289497 54.491058,116.453735 54.359108,123.610535 
	C54.287979,127.468643 55.315948,128.780487 59.343361,127.216118 
	C68.336464,123.722969 77.458008,120.559860 86.533127,117.278648 
	C100.201843,112.336571 99.058487,113.585625 99.040840,99.331116 
	C99.034172,93.947815 99.039757,88.564507 99.039757,82.006851 
	C90.466248,85.109848 83.177055,87.748009 75.180435,90.713112 
z"/>
<path fill="#FC1137" opacity="1.000000" stroke="none" 
	d="
M26.531334,1.000000 
	C27.144730,2.976305 27.414713,4.952541 27.415789,6.928924 
	C27.439821,51.052540 27.429600,95.176178 27.436846,139.299805 
	C27.439266,154.038940 36.623619,160.468246 50.543087,155.451477 
	C64.786209,150.318054 79.008186,145.125946 93.245468,139.976257 
	C94.911362,139.373703 96.615677,138.877411 99.019073,138.099945 
	C99.019073,152.552948 99.019073,166.307907 99.009537,180.531433 
	C66.380394,181.000000 33.760792,181.000000 1.070595,181.000000 
	C1.070595,121.000031 1.070595,61.000027 1.070595,1.000000 
	C9.420065,1.000000 17.741367,1.000000 26.531334,1.000000 
z"/>
<path fill="#FC163B" opacity="1.000000" stroke="none" 
	d="
M75.534149,90.549644 
	C83.177055,87.748009 90.466248,85.109848 99.039757,82.006851 
	C99.039757,88.564507 99.034172,93.947815 99.040840,99.331116 
	C99.058487,113.585625 100.201843,112.336571 86.533127,117.278648 
	C77.458008,120.559860 68.336464,123.722969 59.343361,127.216118 
	C55.315948,128.780487 54.287979,127.468643 54.359108,123.610535 
	C54.491058,116.453735 54.523579,109.289497 54.338081,102.135086 
	C54.259079,99.087959 55.468102,97.668922 58.266819,96.757195 
	C63.957142,94.903519 69.548370,92.745628 75.534149,90.549644 
z"/>
</svg>
